<svg class="svg-icon"
    style="width: 1em; height: 1em;vertical-align: middle;fill: white;overflow: hidden;"
    viewBox="0 0 1024 1024" version="1.1" xmlns="http://www.w3.org/2000/svg">
    <path
        d="M399.786667 143.786667L146.346667 397.226667c-13.226667 13.226667-34.986667 13.226667-48.213334 0-13.226667-13.226667-13.226667-34.986667 0-48.213334l253.44-253.44c13.226667-13.226667 34.986667-13.226667 48.213334 0 13.226667 13.226667 13.226667 34.56 0 48.213334z"
        fill="#4C4C4C" />
    <path
        d="M375.466667 938.666667c-18.773333 0-34.133333-15.36-34.133334-34.133334V119.466667c0-18.773333 15.36-34.133333 34.133334-34.133334s34.133333 15.36 34.133333 34.133334v785.066666c0 18.773333-15.36 34.133333-34.133333 34.133334zM624.213333 880.213333l253.44-253.44c13.226667-13.226667 34.986667-13.226667 48.213334 0 13.226667 13.226667 13.226667 34.986667 0 48.213334l-253.44 253.44c-13.226667 13.226667-34.986667 13.226667-48.213334 0-13.226667-13.226667-13.226667-34.56 0-48.213334z"
        fill="#4C4C4C" />
    <path
        d="M648.533333 85.333333c18.773333 0 34.133333 15.36 34.133334 34.133334v785.066666c0 18.773333-15.36 34.133333-34.133334 34.133334s-34.133333-15.36-34.133333-34.133334V119.466667c0-18.773333 15.36-34.133333 34.133333-34.133334z"
        fill="#4C4C4C" />
</svg>