<svg width="25" height="25" viewBox="0 0 25 25" fill="none" xmlns="http://www.w3.org/2000/svg">
<mask id="mask0_3_14797" style="mask-type:alpha" maskUnits="userSpaceOnUse" x="0" y="0" width="25" height="25">
<rect x="0.144531" y="0.80835" width="24" height="24" fill="#D9D9D9"/>
</mask>
<g mask="url(#mask0_3_14797)">
<path d="M6.14453 22.8083C5.59453 22.8083 5.1237 22.6125 4.73203 22.2208C4.34036 21.8292 4.14453 21.3583 4.14453 20.8083V10.8083C4.14453 10.2583 4.34036 9.78752 4.73203 9.39585C5.1237 9.00418 5.59453 8.80835 6.14453 8.80835H7.14453V6.80835C7.14453 5.42502 7.63203 4.24585 8.60703 3.27085C9.58203 2.29585 10.7612 1.80835 12.1445 1.80835C13.5279 1.80835 14.707 2.29585 15.682 3.27085C16.657 4.24585 17.1445 5.42502 17.1445 6.80835V8.80835H18.1445C18.6945 8.80835 19.1654 9.00418 19.557 9.39585C19.9487 9.78752 20.1445 10.2583 20.1445 10.8083V20.8083C20.1445 21.3583 19.9487 21.8292 19.557 22.2208C19.1654 22.6125 18.6945 22.8083 18.1445 22.8083H6.14453ZM6.14453 20.8083H18.1445V10.8083H6.14453V20.8083ZM12.1445 17.8083C12.6945 17.8083 13.1654 17.6125 13.557 17.2208C13.9487 16.8292 14.1445 16.3583 14.1445 15.8083C14.1445 15.2583 13.9487 14.7875 13.557 14.3959C13.1654 14.0042 12.6945 13.8083 12.1445 13.8083C11.5945 13.8083 11.1237 14.0042 10.732 14.3959C10.3404 14.7875 10.1445 15.2583 10.1445 15.8083C10.1445 16.3583 10.3404 16.8292 10.732 17.2208C11.1237 17.6125 11.5945 17.8083 12.1445 17.8083ZM9.14453 8.80835H15.1445V6.80835C15.1445 5.97502 14.8529 5.26668 14.2695 4.68335C13.6862 4.10002 12.9779 3.80835 12.1445 3.80835C11.3112 3.80835 10.6029 4.10002 10.0195 4.68335C9.4362 5.26668 9.14453 5.97502 9.14453 6.80835V8.80835Z" fill="#A8A8A8"/>
</g>
</svg>
