<svg width="25" height="25" viewBox="0 0 25 25" fill="none" xmlns="http://www.w3.org/2000/svg">
<g id="call">
<mask id="mask0_3_13659" style="mask-type:alpha" maskUnits="userSpaceOnUse" x="0" y="0" width="25" height="25">
<rect id="Bounding box" x="0.5" y="0.5" width="24" height="24" fill="#D9D9D9"/>
</mask>
<g mask="url(#mask0_3_13659)">
<path id="call_2" d="M20.45 21.5C18.3667 21.5 16.3083 21.0458 14.275 20.1375C12.2417 19.2292 10.3917 17.9417 8.725 16.275C7.05833 14.6083 5.77083 12.7583 4.8625 10.725C3.95417 8.69167 3.5 6.63333 3.5 4.55C3.5 4.25 3.6 4 3.8 3.8C4 3.6 4.25 3.5 4.55 3.5H8.6C8.83333 3.5 9.04167 3.57917 9.225 3.7375C9.40833 3.89583 9.51667 4.08333 9.55 4.3L10.2 7.8C10.2333 8.06667 10.225 8.29167 10.175 8.475C10.125 8.65833 10.0333 8.81667 9.9 8.95L7.475 11.4C7.80833 12.0167 8.20417 12.6125 8.6625 13.1875C9.12083 13.7625 9.625 14.3167 10.175 14.85C10.6917 15.3667 11.2333 15.8458 11.8 16.2875C12.3667 16.7292 12.9667 17.1333 13.6 17.5L15.95 15.15C16.1 15 16.2958 14.8875 16.5375 14.8125C16.7792 14.7375 17.0167 14.7167 17.25 14.75L20.7 15.45C20.9333 15.5167 21.125 15.6375 21.275 15.8125C21.425 15.9875 21.5 16.1833 21.5 16.4V20.45C21.5 20.75 21.4 21 21.2 21.2C21 21.4 20.75 21.5 20.45 21.5ZM6.525 9.5L8.175 7.85L7.75 5.5H5.525C5.60833 6.18333 5.725 6.85833 5.875 7.525C6.025 8.19167 6.24167 8.85 6.525 9.5ZM15.475 18.45C16.125 18.7333 16.7875 18.9583 17.4625 19.125C18.1375 19.2917 18.8167 19.4 19.5 19.45V17.25L17.15 16.775L15.475 18.45Z" fill="#A8A8A8"/>
</g>
</g>
</svg>
