<svg width="25" height="25" viewBox="0 0 25 25" fill="none" xmlns="http://www.w3.org/2000/svg">
<mask id="mask0_3_14886" style="mask-type:alpha" maskUnits="userSpaceOnUse" x="0" y="0" width="25" height="25">
<rect x="0.144531" y="0.80835" width="24" height="24" fill="#D9D9D9"/>
</mask>
<g mask="url(#mask0_3_14886)">
<path d="M12.1445 12.8083C11.0445 12.8083 10.1029 12.4167 9.31953 11.6333C8.5362 10.85 8.14453 9.90835 8.14453 8.80835C8.14453 7.70835 8.5362 6.76668 9.31953 5.98335C10.1029 5.20002 11.0445 4.80835 12.1445 4.80835C13.2445 4.80835 14.1862 5.20002 14.9695 5.98335C15.7529 6.76668 16.1445 7.70835 16.1445 8.80835C16.1445 9.90835 15.7529 10.85 14.9695 11.6333C14.1862 12.4167 13.2445 12.8083 12.1445 12.8083ZM18.1445 20.8083H6.14453C5.59453 20.8083 5.1237 20.6125 4.73203 20.2208C4.34036 19.8292 4.14453 19.3583 4.14453 18.8083V18.0083C4.14453 17.4417 4.29036 16.9208 4.58203 16.4458C4.8737 15.9708 5.2612 15.6083 5.74453 15.3583C6.77786 14.8417 7.82786 14.4542 8.89453 14.1958C9.9612 13.9375 11.0445 13.8083 12.1445 13.8083C13.2445 13.8083 14.3279 13.9375 15.3945 14.1958C16.4612 14.4542 17.5112 14.8417 18.5445 15.3583C19.0279 15.6083 19.4154 15.9708 19.707 16.4458C19.9987 16.9208 20.1445 17.4417 20.1445 18.0083V18.8083C20.1445 19.3583 19.9487 19.8292 19.557 20.2208C19.1654 20.6125 18.6945 20.8083 18.1445 20.8083ZM6.14453 18.8083H18.1445V18.0083C18.1445 17.825 18.0987 17.6583 18.007 17.5083C17.9154 17.3583 17.7945 17.2417 17.6445 17.1583C16.7445 16.7083 15.8362 16.3709 14.9195 16.1459C14.0029 15.9209 13.0779 15.8083 12.1445 15.8083C11.2112 15.8083 10.2862 15.9209 9.36953 16.1459C8.45286 16.3709 7.54453 16.7083 6.64453 17.1583C6.49453 17.2417 6.3737 17.3583 6.28203 17.5083C6.19036 17.6583 6.14453 17.825 6.14453 18.0083V18.8083ZM12.1445 10.8083C12.6945 10.8083 13.1654 10.6125 13.557 10.2208C13.9487 9.82918 14.1445 9.35835 14.1445 8.80835C14.1445 8.25835 13.9487 7.78752 13.557 7.39585C13.1654 7.00418 12.6945 6.80835 12.1445 6.80835C11.5945 6.80835 11.1237 7.00418 10.732 7.39585C10.3404 7.78752 10.1445 8.25835 10.1445 8.80835C10.1445 9.35835 10.3404 9.82918 10.732 10.2208C11.1237 10.6125 11.5945 10.8083 12.1445 10.8083Z" fill="#A8A8A8"/>
</g>
</svg>
